# xmcd CD database file
#
# Track frame offsets:
#	150
#	22905
#	39719
#	52523
#	67737
#	78198
#	94141
#	111396
#	122192
#	136103
#	149734
#
# Disc length: 2298 seconds
#
# Revision: 0
# Processed by: cddbd v1.5.2PL0 Copyright (c) Steve Scherf et al.
# Submitted via: CDex 1.51
#
DISCID=8c08f80b
DTITLE=Oscar Alem - Milongas por pedro coronel
DYEAR=2008
DGENRE=Salsa
TTITLE0=El arbol fiel
TTITLE1=Milonga del sabrador
TTITLE2=Milonga del guitarrero
TTITLE3=Milonga del malambo
TTITLE4=Milonga de las casuarinas
TTITLE5=Milonga del rancho inclinado
TTITLE6=Milonga de los portos
TTITLE7=Milonga orillera
TTITLE8=Milonga de la despedida
TTITLE9=Milonga del campo ajeno
TTITLE10=El arbol fiel
EXTD=YEAR: 2008
EXTT0=
EXTT1=
EXTT2=
EXTT3=
EXTT4=
EXTT5=
EXTT6=
EXTT7=
EXTT8=
EXTT9=
EXTT10=
PLAYORDER=
